<?xml version="1.0" encoding="UTF-8"?>
<svg id="Layer_1" data-name="Layer 1" xmlns="http://www.w3.org/2000/svg" viewBox="0 0 213.29 203.87">
  <defs>
    <style>
      .cls-1 {
        fill: #231f20;
      }
    </style>
  </defs>
  <path class="cls-1" d="M107.66,49.99c-23.55-.48-41.97,18.54-42.44,40.51-.48,23.53,18.56,41.99,40.59,42.4,23.5.41,42.52-18.82,42.25-41.46.2-22.6-18.32-40.96-40.41-41.46ZM138.12,91.45v12.19c0,8.49-6.02,16.68-15.19,18.77-1.39.32-2.87.45-4.33.45-8.04.03-16.09,0-24.14,0s-17.15-6.48-18.9-15.95c-.22-1.14-.32-2.35-.32-3.53-.03-8.06,0-16.1,0-24.16s6.43-17.15,15.92-18.92c1.14-.22,2.35-.32,3.53-.32,8.08-.03,16.15,0,24.24,0s17.15,6.47,18.89,15.97c.22,1.14.3,2.35.32,3.53.03,2.98.02,5.99.02,8.97v2.98h-.02l-.02.02Z"/>
  <path class="cls-1" d="M132.05,76.46c-1.53-6.42-7.1-10.78-13.71-10.78s-15.31-.02-22.97,0c-.71,0-1.44.05-2.14.13-7,.8-12.34,6.75-12.34,13.8-.02,7.91-.02,15.82,0,23.71,0,.76.05,1.54.2,2.29,1.33,6.98,6.96,11.64,14.06,11.64h23.27c.76-.02,1.54-.05,2.29-.18,6.73-1.08,11.76-6.95,11.76-13.76s0-15.79-.03-23.7c0-1.06-.15-2.12-.38-3.15h0ZM122.37,91.83c-.18,8.36-7.15,15.54-16.12,15.32-8.31-.2-15.5-7.15-15.27-16.15.22-8.31,7.1-15.29,15.74-15.22,8.59-.03,15.85,7.1,15.65,16.07h0v-.02ZM123.63,76.51c-.99-.03-2.01-1.04-2.01-2.04s.93-1.97,2.01-1.99c1.14,0,2.02.83,2.02,1.99s-.95,2.07-2.02,2.04Z"/>
  <path class="cls-1" d="M106.73,81.48c-5.54-.03-9.97,4.2-10.03,9.9-.03,5.62,4.29,10.03,9.95,10.05,5.6,0,9.85-4.33,10.03-9.93-.15-5.57-4.28-9.97-9.95-10h0v-.02Z"/>
</svg>