<svg xmlns="http://www.w3.org/2000/svg" version="1.1" xmlns:xlink="http://www.w3.org/1999/xlink" xmlns:svgjs="http://svgjs.dev/svgjs" width="360" height="360"><svg id="SvgjsSvg1005" xmlns="http://www.w3.org/2000/svg" version="1.1" xmlns:xlink="http://www.w3.org/1999/xlink" viewBox="0 0 360 360">
  <!-- Generator: Adobe Illustrator 29.4.0, SVG Export Plug-In . SVG Version: 2.1.0 Build 152)  -->
  <defs>
    <style>
      .st0 {
        fill: url(#radial-gradient);
      }

      .st1 {
        fill: url(#radial-gradient1);
      }
    </style>
    <radialGradient id="SvgjsRadialGradient1004" cx="178.72" cy="180" fx="178.72" fy="180" r="180.64" gradientTransform="translate(2.53)" gradientUnits="userSpaceOnUse">
      <stop offset="0" stop-color="#fff"></stop>
      <stop offset="1" stop-color="#f5e1ea"></stop>
    </radialGradient>
    <radialGradient id="SvgjsRadialGradient1003" cx="2427.65" cy="-5250.75" fx="2427.65" fy="-5250.75" r="778.85" gradientTransform="translate(0 19281.56) scale(1 3.64)" gradientUnits="userSpaceOnUse">
      <stop offset="0" stop-color="#fff"></stop>
      <stop offset="1" stop-color="#fef5f9"></stop>
    </radialGradient>
  </defs>
  <rect class="st0" width="360" height="360"></rect>
  <path d="M224.34,73.02c-7.25-.16-14.5-.24-21.69.27-10.78.7-19.85,2.72-27.19,5.96-6.05,2.69-11.91,6.69-17.66,11.97-3.12,2.9-6.2,6.2-9.22,9.87-8.55,10.39-19.95,27.19-34.21,50.4l-12.52,21.69h-3.67v-99.88h-37.27v213.82h37.27v-95.3h5.5l82.47,95.3h75.2V102.3h66.28s0-29.02,0-29.02h-87.55c-5.23,0-10.49-.16-15.75-.27ZM224.09,277.51l-87.21-102.17c3.63-5.9,7.33-12,11.09-18.36,9.77-16.07,17.41-27.58,22.91-34.52,5.5-6.9,10.81-11.76,15.88-14.51,5.1-2.75,11.42-4.12,18.94-4.12h18.39v173.68Z"></path>
  <rect class="st1" x="1467.65" y="-1772.68" width="1920" height="3926.71"></rect>
</svg><style>@media (prefers-color-scheme: light) { :root { filter: none; } }
@media (prefers-color-scheme: dark) { :root { filter: none; } }
</style></svg>